# xmcd
#
# Track frame offsets: 
#        150
#        21961
#        35275
#        54106
#        72756
#        96791
#        126298
#        141635
#        162028
#        178347
#        201671
#        219154
#
# Disc length: 3155 seconds
#
# Revision: 0
# Processed by: cddbd v1.5.2PL0 Copyright (c) Steve Scherf et al.
# Submitted via: ExactAudioCopy v1.2
#
DISCID=ae0c510c
DTITLE=Boz Scaggs - Out of the Blues
DYEAR=2018
DGENRE=Blues
TTITLE0=Rock and Stick
TTITLE1=I’ve Just Got to Forget You
TTITLE2=I’ve Just Got to Know
TTITLE3=Radiator 110
TTITLE4=Little Miss Night and Day
TTITLE5=On the Beach
TTITLE6=Down in Virginia
TTITLE7=Those Lies
TTITLE8=The Feeling Is Gone
TTITLE9=Good Information (bonus track)
TTITLE10=25 Years (bonus track)
TTITLE11=Good Lover (bonus track)
EXTD=
EXTT0=
EXTT1=
EXTT2=
EXTT3=
EXTT4=
EXTT5=
EXTT6=
EXTT7=
EXTT8=
EXTT9=
EXTT10=
EXTT11=
PLAYORDER=
